<mxfile host="app.diagrams.net" agent="Mozilla/5.0 (Windows NT 10.0; Win64; x64) AppleWebKit/537.36 (KHTML, like Gecko) Chrome/138.0.0.0 Safari/537.36" version="28.0.4">
  <diagram name="Página-1" id="vyFXWA-RQUevvp1Y1oCK">
    <mxGraphModel dx="521" dy="644" grid="1" gridSize="10" guides="1" tooltips="1" connect="1" arrows="1" fold="1" page="1" pageScale="1" pageWidth="827" pageHeight="1169" math="0" shadow="0">
      <root>
        <mxCell id="0" />
        <mxCell id="1" parent="0" />
        <mxCell id="NFerzUf6Qn0_fdZQL9cD-8" style="edgeStyle=none;curved=1;rounded=0;orthogonalLoop=1;jettySize=auto;html=1;entryX=0;entryY=0.5;entryDx=0;entryDy=0;fontSize=12;startSize=8;endSize=8;" edge="1" parent="1" source="NFerzUf6Qn0_fdZQL9cD-1" target="NFerzUf6Qn0_fdZQL9cD-3">
          <mxGeometry relative="1" as="geometry" />
        </mxCell>
        <mxCell id="NFerzUf6Qn0_fdZQL9cD-9" value="1. Seleccionar Recurso Para Eliminar" style="edgeLabel;html=1;align=center;verticalAlign=middle;resizable=0;points=[];fontSize=12;" vertex="1" connectable="0" parent="NFerzUf6Qn0_fdZQL9cD-8">
          <mxGeometry x="-0.1184" relative="1" as="geometry">
            <mxPoint as="offset" />
          </mxGeometry>
        </mxCell>
        <mxCell id="NFerzUf6Qn0_fdZQL9cD-1" value=":Administrador" style="html=1;whiteSpace=wrap;" vertex="1" parent="1">
          <mxGeometry x="40" y="20" width="110" height="50" as="geometry" />
        </mxCell>
        <mxCell id="NFerzUf6Qn0_fdZQL9cD-10" style="edgeStyle=none;curved=1;rounded=0;orthogonalLoop=1;jettySize=auto;html=1;entryX=1;entryY=0.25;entryDx=0;entryDy=0;fontSize=12;startSize=8;endSize=8;" edge="1" parent="1" source="NFerzUf6Qn0_fdZQL9cD-3" target="NFerzUf6Qn0_fdZQL9cD-4">
          <mxGeometry relative="1" as="geometry" />
        </mxCell>
        <mxCell id="NFerzUf6Qn0_fdZQL9cD-11" value="2. Enviar Solicitud Eminilación" style="edgeLabel;html=1;align=center;verticalAlign=middle;resizable=0;points=[];fontSize=12;" vertex="1" connectable="0" parent="NFerzUf6Qn0_fdZQL9cD-10">
          <mxGeometry x="-0.0453" y="-1" relative="1" as="geometry">
            <mxPoint x="-1" as="offset" />
          </mxGeometry>
        </mxCell>
        <mxCell id="NFerzUf6Qn0_fdZQL9cD-3" value=":UI_Recursos" style="html=1;whiteSpace=wrap;" vertex="1" parent="1">
          <mxGeometry x="317" y="110" width="110" height="50" as="geometry" />
        </mxCell>
        <mxCell id="NFerzUf6Qn0_fdZQL9cD-12" style="edgeStyle=none;curved=1;rounded=0;orthogonalLoop=1;jettySize=auto;html=1;entryX=0;entryY=0.5;entryDx=0;entryDy=0;fontSize=12;startSize=8;endSize=8;exitX=1;exitY=0.75;exitDx=0;exitDy=0;" edge="1" parent="1" source="NFerzUf6Qn0_fdZQL9cD-4" target="NFerzUf6Qn0_fdZQL9cD-5">
          <mxGeometry relative="1" as="geometry" />
        </mxCell>
        <mxCell id="NFerzUf6Qn0_fdZQL9cD-13" value="3. Verificar Si Esta Asignado" style="edgeLabel;html=1;align=center;verticalAlign=middle;resizable=0;points=[];fontSize=12;" vertex="1" connectable="0" parent="NFerzUf6Qn0_fdZQL9cD-12">
          <mxGeometry x="-0.0318" y="-2" relative="1" as="geometry">
            <mxPoint as="offset" />
          </mxGeometry>
        </mxCell>
        <mxCell id="NFerzUf6Qn0_fdZQL9cD-14" style="edgeStyle=none;curved=1;rounded=0;orthogonalLoop=1;jettySize=auto;html=1;entryX=0;entryY=0.5;entryDx=0;entryDy=0;fontSize=12;startSize=8;endSize=8;" edge="1" parent="1" source="NFerzUf6Qn0_fdZQL9cD-4" target="NFerzUf6Qn0_fdZQL9cD-6">
          <mxGeometry relative="1" as="geometry" />
        </mxCell>
        <mxCell id="NFerzUf6Qn0_fdZQL9cD-15" value="4. Eliminar Recurso" style="edgeLabel;html=1;align=center;verticalAlign=middle;resizable=0;points=[];fontSize=12;" vertex="1" connectable="0" parent="NFerzUf6Qn0_fdZQL9cD-14">
          <mxGeometry x="0.0661" y="-2" relative="1" as="geometry">
            <mxPoint y="-1" as="offset" />
          </mxGeometry>
        </mxCell>
        <mxCell id="NFerzUf6Qn0_fdZQL9cD-17" style="edgeStyle=none;curved=1;rounded=0;orthogonalLoop=1;jettySize=auto;html=1;entryX=0.5;entryY=0;entryDx=0;entryDy=0;fontSize=12;startSize=8;endSize=8;" edge="1" parent="1" source="NFerzUf6Qn0_fdZQL9cD-4" target="NFerzUf6Qn0_fdZQL9cD-7">
          <mxGeometry relative="1" as="geometry" />
        </mxCell>
        <mxCell id="NFerzUf6Qn0_fdZQL9cD-18" value="5. Notificar Resultado" style="edgeLabel;html=1;align=center;verticalAlign=middle;resizable=0;points=[];fontSize=12;" vertex="1" connectable="0" parent="NFerzUf6Qn0_fdZQL9cD-17">
          <mxGeometry x="0.3794" relative="1" as="geometry">
            <mxPoint y="-38" as="offset" />
          </mxGeometry>
        </mxCell>
        <mxCell id="NFerzUf6Qn0_fdZQL9cD-4" value=":SistemaRecursos" style="html=1;whiteSpace=wrap;" vertex="1" parent="1">
          <mxGeometry x="40" y="210" width="110" height="50" as="geometry" />
        </mxCell>
        <mxCell id="NFerzUf6Qn0_fdZQL9cD-5" value=":BD_RecursosEventos" style="html=1;whiteSpace=wrap;" vertex="1" parent="1">
          <mxGeometry x="304" y="300" width="136" height="50" as="geometry" />
        </mxCell>
        <mxCell id="NFerzUf6Qn0_fdZQL9cD-6" value=":BD_Recursos" style="html=1;whiteSpace=wrap;" vertex="1" parent="1">
          <mxGeometry x="270" y="420" width="110" height="50" as="geometry" />
        </mxCell>
        <mxCell id="NFerzUf6Qn0_fdZQL9cD-7" value=":Notificación" style="html=1;whiteSpace=wrap;" vertex="1" parent="1">
          <mxGeometry x="10" y="420" width="110" height="50" as="geometry" />
        </mxCell>
        <mxCell id="NFerzUf6Qn0_fdZQL9cD-16" style="edgeStyle=none;curved=1;rounded=0;orthogonalLoop=1;jettySize=auto;html=1;exitX=0.5;exitY=0;exitDx=0;exitDy=0;fontSize=12;startSize=8;endSize=8;" edge="1" parent="1" source="NFerzUf6Qn0_fdZQL9cD-6" target="NFerzUf6Qn0_fdZQL9cD-6">
          <mxGeometry relative="1" as="geometry" />
        </mxCell>
        <mxCell id="NFerzUf6Qn0_fdZQL9cD-19" value="&lt;div&gt;El administrador solo puede eliminar recursos que no estén asignados a eventos en curso.&lt;/div&gt;&lt;div&gt;El sistema valida esta condición antes de ejecutar la eliminación.&lt;/div&gt;" style="html=1;whiteSpace=wrap;" vertex="1" parent="1">
          <mxGeometry x="480" y="210" width="150" height="150" as="geometry" />
        </mxCell>
      </root>
    </mxGraphModel>
  </diagram>
</mxfile>
